<svg id="Layer_1" data-name="Layer 1" xmlns="http://www.w3.org/2000/svg" xmlns:xlink="http://www.w3.org/1999/xlink" viewBox="0 0 357.28 263.34"><defs><style>.cls-1{fill:url(#radial-gradient);}.cls-2{fill:none;stroke:#2f3e4f;}.cls-3{fill:url(#linear-gradient);}.cls-4{fill:url(#linear-gradient-2);}.cls-5{fill:url(#linear-gradient-3);}.cls-6{fill:url(#linear-gradient-4);}.cls-7{fill:url(#linear-gradient-5);}.cls-8{fill:url(#linear-gradient-6);}.cls-9{fill:url(#linear-gradient-7);}.cls-10{fill:url(#linear-gradient-8);}.cls-11{fill:url(#linear-gradient-9);}</style><radialGradient id="radial-gradient" cx="-119.73" cy="563.22" r="1" gradientTransform="matrix(0, -155, -152, 0, 85788.31, -18403.09)" gradientUnits="userSpaceOnUse"><stop offset="0.13" stop-color="#2a3847" stop-opacity="0.75"/><stop offset="0.43" stop-color="#252d41" stop-opacity="0.88"/><stop offset="0.85" stop-color="#20233b"/></radialGradient><linearGradient id="linear-gradient" x1="205.49" y1="156.29" x2="205.49" y2="106.53" gradientTransform="matrix(1, 0, 0, -1, 0, 285.89)" gradientUnits="userSpaceOnUse"><stop offset="0" stop-color="#4a518a"/><stop offset="1" stop-color="#172146"/></linearGradient><linearGradient id="linear-gradient-2" x1="156.58" y1="156.87" x2="202.42" y2="63.49" gradientTransform="matrix(1, 0, 0, -1, 0, 285.89)" gradientUnits="userSpaceOnUse"><stop offset="0" stop-color="#3f467d"/><stop offset="0.53" stop-color="#323a6a"/><stop offset="1" stop-color="#172146"/></linearGradient><linearGradient id="linear-gradient-3" x1="271.65" y1="147.32" x2="208.29" y2="80.45" gradientTransform="matrix(1, 0, 0, -1, 0, 285.89)" gradientUnits="userSpaceOnUse"><stop offset="0" stop-color="#121638"/><stop offset="1" stop-color="#172246"/></linearGradient><linearGradient id="linear-gradient-4" x1="126.28" y1="156.29" x2="126.28" y2="106.53" xlink:href="#linear-gradient"/><linearGradient id="linear-gradient-5" x1="77.37" y1="156.87" x2="123.21" y2="63.49" xlink:href="#linear-gradient-2"/><linearGradient id="linear-gradient-6" x1="192.43" y1="147.32" x2="129.07" y2="80.45" xlink:href="#linear-gradient-3"/><linearGradient id="linear-gradient-7" x1="165.34" y1="222.39" x2="165.34" y2="172.62" xlink:href="#linear-gradient"/><linearGradient id="linear-gradient-8" x1="214.23" y1="222.97" x2="168.39" y2="129.59" xlink:href="#linear-gradient-2"/><linearGradient id="linear-gradient-9" x1="99.17" y1="213.42" x2="162.53" y2="146.54" xlink:href="#linear-gradient-3"/></defs><title>blockhain ill</title><rect class="cls-1" x="0.28" y="0.41" width="357" height="262"/><path class="cls-2" d="M88.75,194.5-13.75,254" transform="translate(15.03 8.91)"/><path class="cls-2" d="M242.25,194.5l99.5,59" transform="translate(15.03 8.91)"/><path class="cls-2" d="M165.25,253.5v-59" transform="translate(15.03 8.91)"/><path class="cls-2" d="M129.25,129.5h-144" transform="translate(15.03 8.91)"/><path class="cls-2" d="M341.25-8.5l-136,97" transform="translate(15.03 8.91)"/><path class="cls-2" d="M-14.75-8l141,96.5" transform="translate(15.03 8.91)"/><path class="cls-2" d="M198.25,129.5h144" transform="translate(15.03 8.91)"/><path class="cls-3" d="M205.07,129.6l40.22,25.22-40.12,24.54-39.48-25.09Z" transform="translate(15.03 8.91)"/><path class="cls-4" d="M165.69,154.27l39.49,25.09V221.5l-39.72-25.74Z" transform="translate(15.03 8.91)"/><path class="cls-5" d="M205.17,179.36l40.13-24.54-.16,41.1-40,25.58Z" transform="translate(15.03 8.91)"/><path class="cls-6" d="M125.86,129.6l40.22,25.22L126,179.36,86.47,154.27Z" transform="translate(15.03 8.91)"/><path class="cls-7" d="M86.48,154.27,126,179.36V221.5L86.25,195.76Z" transform="translate(15.03 8.91)"/><path class="cls-8" d="M126,179.36l40.12-24.54-.16,41.1L126,221.5Z" transform="translate(15.03 8.91)"/><path class="cls-9" d="M165.75,63.5,125.53,88.72l40.13,24.55,39.48-25.1Z" transform="translate(15.03 8.91)"/><path class="cls-10" d="M205.13,88.17l-39.49,25.1V155.4l39.71-25.74Z" transform="translate(15.03 8.91)"/><path class="cls-11" d="M165.65,113.27,125.52,88.72l.16,41.1,40,25.58Z" transform="translate(15.03 8.91)"/></svg>