<svg width="44" height="70" viewBox="0 0 44 70" fill="none" xmlns="http://www.w3.org/2000/svg">
<path fill-rule="evenodd" clip-rule="evenodd" d="M34.5 4.8291H8.625C7.48126 4.8291 6.38436 5.28345 5.5756 6.0922C4.76685 6.90095 4.3125 7.99786 4.3125 9.1416V60.8916C4.3125 62.0353 4.76685 63.1322 5.5756 63.941C6.38436 64.7497 7.48126 65.2041 8.625 65.2041H34.5C35.6438 65.2041 36.7407 64.7497 37.5494 63.941C38.3582 63.1322 38.8125 62.0353 38.8125 60.8916V9.1416C38.8125 7.99786 38.3582 6.90095 37.5494 6.0922C36.7407 5.28345 35.6438 4.8291 34.5 4.8291ZM8.625 0.516602C6.33751 0.516602 4.14371 1.4253 2.5262 3.04281C0.908703 4.66031 0 6.85411 0 9.1416V60.8916C0 63.1791 0.908703 65.3729 2.5262 66.9904C4.14371 68.6079 6.33751 69.5166 8.625 69.5166H34.5C36.7875 69.5166 38.9813 68.6079 40.5988 66.9904C42.2163 65.3729 43.125 63.1791 43.125 60.8916V9.1416C43.125 6.85411 42.2163 4.66031 40.5988 3.04281C38.9813 1.4253 36.7875 0.516602 34.5 0.516602L8.625 0.516602Z" fill="url(#paint0_linear_158_22)"/>
<path fill-rule="evenodd" clip-rule="evenodd" d="M21.5625 60.8916C22.7062 60.8916 23.8031 60.4372 24.6119 59.6285C25.4206 58.8197 25.875 57.7228 25.875 56.5791C25.875 55.4354 25.4206 54.3385 24.6119 53.5297C23.8031 52.721 22.7062 52.2666 21.5625 52.2666C20.4188 52.2666 19.3219 52.721 18.5131 53.5297C17.7044 54.3385 17.25 55.4354 17.25 56.5791C17.25 57.7228 17.7044 58.8197 18.5131 59.6285C19.3219 60.4372 20.4188 60.8916 21.5625 60.8916Z" fill="url(#paint1_linear_158_22)"/>
<defs>
<linearGradient id="paint0_linear_158_22" x1="40.3428" y1="69.5166" x2="1.30184e-06" y2="69.5166" gradientUnits="userSpaceOnUse">
<stop stop-color="#222BE7"/>
<stop offset="1" stop-color="#2860F8"/>
</linearGradient>
<linearGradient id="paint1_linear_158_22" x1="25.3185" y1="60.8916" x2="17.25" y2="60.8916" gradientUnits="userSpaceOnUse">
<stop stop-color="#222BE7"/>
<stop offset="1" stop-color="#2860F8"/>
</linearGradient>
</defs>
</svg>
