<svg width="53" height="68" viewBox="0 0 53 68" fill="none" xmlns="http://www.w3.org/2000/svg">
<path d="M45.2366 8.65389C40.4423 3.8585 33.8173 0.891602 26.5 0.891602C19.1827 0.891602 12.5577 3.8585 7.76341 8.65389C5.29861 11.1116 3.34386 14.0322 2.01155 17.2479C0.679235 20.4636 -0.00437307 23.9108 2.10495e-05 27.3916C2.10495e-05 35.1395 2.96692 42.1543 7.76341 47.2312L26.5 67.1416L45.2366 47.2312C50.032 42.1543 53 35.1395 53 27.3916C53.0041 23.9109 52.3204 20.4637 50.9881 17.248C49.6558 14.0324 47.7012 11.1117 45.2366 8.65389ZM43.6278 45.7174L26.5 63.9196L9.36887 45.7141C4.75125 40.8271 2.20835 34.3191 2.20835 27.3916C2.20835 20.9046 4.73579 14.8041 9.32581 10.2152C11.5756 7.95231 14.2521 6.15826 17.2 4.93691C20.148 3.71556 23.309 3.09119 26.5 3.09993C32.9881 3.09993 39.0875 5.62737 43.6753 10.2163C45.9383 12.4663 47.7325 15.1429 48.954 18.091C50.1756 21.0392 50.8002 24.2004 50.7917 27.3916C50.7917 34.3191 48.2488 40.8271 43.6278 45.7174Z" fill="url(#paint0_linear_158_35)"/>
<path d="M26.4837 36.2238C31.3622 36.2238 35.317 32.269 35.317 27.3905C35.317 22.5119 31.3622 18.5571 26.4837 18.5571C21.6052 18.5571 17.6504 22.5119 17.6504 27.3905C17.6504 32.269 21.6052 36.2238 26.4837 36.2238Z" fill="url(#paint1_linear_158_35)"/>
<defs>
<linearGradient id="paint0_linear_158_35" x1="49.5806" y1="67.1416" x2="1.59995e-06" y2="67.1416" gradientUnits="userSpaceOnUse">
<stop stop-color="#222BE7"/>
<stop offset="1" stop-color="#2860F8"/>
</linearGradient>
<linearGradient id="paint1_linear_158_35" x1="34.1773" y1="36.2238" x2="17.6504" y2="36.2238" gradientUnits="userSpaceOnUse">
<stop stop-color="#222BE7"/>
<stop offset="1" stop-color="#2860F8"/>
</linearGradient>
</defs>
</svg>
