<svg width="59" height="40" viewBox="0 0 59 40" fill="none" xmlns="http://www.w3.org/2000/svg">
<path d="M58.4756 5.20848V4.8916C58.4756 4.45285 58.4513 4.03848 58.3294 3.59973C57.7444 1.4791 55.8187 0.0166016 53.625 0.0166016H4.875C2.68125 0.0166016 0.755625 1.4791 0.170625 3.59973C0.04875 4.03848 0 4.45285 0 4.8916V34.1416C0 36.8228 2.19375 39.0166 4.875 39.0166H53.625C56.3063 39.0166 58.5 36.8228 58.5 34.1416L58.4756 5.20848ZM53.6006 4.8916L29.25 19.5166L4.875 4.8916H53.6006ZM4.875 34.1416V10.571L26.7394 23.6847C27.5194 24.1479 28.3725 24.3916 29.25 24.3916C30.1275 24.3916 30.9806 24.1479 31.7606 23.6847L53.6006 10.571L53.625 34.1416H4.875Z" fill="url(#paint0_linear_158_30)"/>
<defs>
<linearGradient id="paint0_linear_158_30" x1="54.7258" y1="39.0166" x2="1.76598e-06" y2="39.0166" gradientUnits="userSpaceOnUse">
<stop stop-color="#222BE7"/>
<stop offset="1" stop-color="#2860F8"/>
</linearGradient>
</defs>
</svg>
