<svg width="358" height="262" viewBox="0 0 358 262" fill="none" xmlns="http://www.w3.org/2000/svg">
<rect x="1" width="357" height="262" fill="url(#paint0_radial_219_666)"/>
<path d="M126 213L73 261" stroke="#2F3E4F"/>
<path d="M234 213L287 261" stroke="#2F3E4F"/>
<path d="M180 261L180 213" stroke="#2F3E4F"/>
<path d="M125.5 166L1 166" stroke="#2F3E4F"/>
<path d="M357 0.5L233 124.5" stroke="#2F3E4F"/>
<path d="M126 125.5L1 0.5" stroke="#2F3E4F"/>
<path d="M234 166L358 166" stroke="#2F3E4F"/>
<path d="M126 124.688V213H233.645V124.688C198.104 131.68 161.541 131.68 126 124.688Z" fill="url(#paint1_linear_219_666)" stroke="#384058" stroke-width="0.5" stroke-miterlimit="10"/>
<path d="M126 124.688H233.645C198.104 131.68 161.541 131.68 126 124.688V124.688Z" fill="#1F2038"/>
<path d="M207.349 124.887L223.406 124.807C223.369 113.856 223.332 102.906 223.295 91.9579C223.376 90.7302 223.376 89.4985 223.295 88.2708C222.856 81.8333 220.336 77.2132 218.501 73.9335C215.776 69.1663 212.258 64.8992 208.098 61.3161C206.061 59.5578 203.15 56.9397 198.586 54.8507C191.093 51.4039 184.053 51.0801 180.889 51C180.088 51 179.305 51 178.507 51C175.339 51.0801 168.303 51.4039 160.81 54.8507C156.256 56.9397 153.335 59.5613 151.309 61.3196C147.148 64.9026 143.63 69.1697 140.906 73.937C139.088 77.2132 136.55 81.8333 136.111 88.2743C136.031 89.502 136.031 90.7337 136.111 91.9614C136.072 102.91 136.035 113.86 136 124.811L152.057 124.891C151.946 118.638 151.837 112.385 151.73 106.132C151.447 101.466 151.447 96.7873 151.73 92.1215C151.774 90.6406 151.91 89.1639 152.137 87.6999C153.701 79.6051 160.027 74.5149 161.642 73.1989C166.301 69.5296 171.949 67.3331 177.863 66.8902C179.092 66.8081 180.325 66.8081 181.554 66.8902C187.468 67.3331 193.115 69.5296 197.775 73.1989C199.39 74.5149 205.716 79.6051 207.279 87.6999C207.503 89.1583 207.635 90.6292 207.676 92.1041C207.959 96.7699 207.959 101.448 207.676 106.114C207.57 112.376 207.461 118.634 207.349 124.887Z" fill="url(#paint2_linear_219_666)" stroke="#18212E" stroke-width="0.25" stroke-miterlimit="10"/>
<path d="M174.28 168.468C172.138 166.306 170.936 163.385 170.936 160.34C170.936 157.296 172.138 154.375 174.28 152.213C176.103 150.897 178.306 150.212 180.554 150.263C182.801 150.313 184.971 151.095 186.734 152.491C188.303 154.057 189.371 156.054 189.801 158.229C190.87 163.925 186.353 168.197 185.918 168.632C186.534 169.475 190.194 174.645 188.665 181.058C188.072 183.471 187.265 185.69 185.561 187.499C184.921 188.262 184.122 188.876 183.22 189.297C182.317 189.718 181.334 189.936 180.338 189.936C179.342 189.936 178.359 189.718 177.456 189.297C176.554 188.876 175.755 188.262 175.116 187.499C173.287 184.692 172.244 181.445 172.097 178.098C171.951 174.751 172.704 171.425 174.28 168.468Z" fill="url(#paint3_radial_219_666)"/>
<path d="M172.58 152.904C170.23 155.3 170.08 158.378 170.014 159.753C169.795 164.31 172.173 167.618 173.012 168.68C172.117 171.503 170.606 177.325 171.856 182.878C172.129 184.309 172.724 185.659 173.597 186.826C173.973 187.31 176.1 190.057 179.766 190.259C179.878 190.259 179.989 190.259 180.097 190.259V190.2C176.762 189.778 174.826 187.279 174.467 186.819C173.595 185.652 172.999 184.302 172.726 182.871C171.477 177.318 172.988 171.496 173.882 168.673C173.043 167.628 170.665 164.303 170.885 159.746C170.951 158.353 171.1 155.293 173.451 152.897C175.567 150.742 178.325 150.328 180.097 150.262C178.468 150.241 175.08 150.356 172.58 152.904Z" fill="url(#paint4_radial_219_666)" fill-opacity="0.52"/>
<path d="M190.378 159.753C190.312 158.36 190.162 155.3 187.812 152.904C185.312 150.356 181.924 150.241 180.295 150.265C182.078 150.331 184.821 150.746 186.941 152.901C189.291 155.296 189.441 158.374 189.507 159.749C189.727 164.307 187.349 167.614 186.51 168.676C187.404 171.5 188.915 177.321 187.666 182.874C187.393 184.305 186.797 185.656 185.925 186.822C185.577 187.282 183.63 189.782 180.295 190.203V190.262C180.403 190.262 180.514 190.262 180.626 190.262C184.292 190.06 186.419 187.313 186.795 186.829C187.668 185.663 188.263 184.312 188.536 182.881C189.786 177.328 188.275 171.507 187.38 168.683C188.219 167.618 190.597 164.31 190.378 159.753Z" fill="url(#paint5_radial_219_666)" fill-opacity="0.52"/>
<path d="M126.936 124.977H159.71V212.064H126.936V124.977Z" fill="url(#paint6_linear_219_666)" fill-opacity="0.1"/>
<path d="M126.936 124.977H159.71V212.064H126.936V124.977Z" fill="url(#paint7_linear_219_666)" fill-opacity="0.1"/>
<path d="M233.688 124.977H200.913V212.064H233.688V124.977Z" fill="url(#paint8_linear_219_666)" fill-opacity="0.1"/>
<defs>
<radialGradient id="paint0_radial_219_666" cx="0" cy="0" r="1" gradientUnits="userSpaceOnUse" gradientTransform="translate(180 155) rotate(-90) scale(155 152)">
<stop offset="0.129032" stop-color="#2A3847" stop-opacity="0.75"/>
<stop offset="0.432258" stop-color="#252D41" stop-opacity="0.88226"/>
<stop offset="0.847176" stop-color="#20233B"/>
</radialGradient>
<linearGradient id="paint1_linear_219_666" x1="264.221" y1="212.896" x2="111.029" y2="212.896" gradientUnits="userSpaceOnUse">
<stop stop-color="#0C183C"/>
<stop offset="0.725174" stop-color="#323A6A"/>
<stop offset="1" stop-color="#27337D"/>
</linearGradient>
<linearGradient id="paint2_linear_219_666" x1="211.045" y1="124.514" x2="124.135" y2="124.811" gradientUnits="userSpaceOnUse">
<stop stop-color="#191C23"/>
<stop offset="1" stop-color="#474E60" stop-opacity="0.67"/>
</linearGradient>
<radialGradient id="paint3_radial_219_666" cx="0" cy="0" r="1" gradientUnits="userSpaceOnUse" gradientTransform="translate(179.784 170.025) rotate(-9.18884) scale(23.9829 23.9828)">
<stop offset="0.359375"/>
<stop offset="0.925139" stop-color="#383838"/>
</radialGradient>
<radialGradient id="paint4_radial_219_666" cx="0" cy="0" r="1" gradientUnits="userSpaceOnUse" gradientTransform="translate(175.049 170.259) rotate(90) scale(19.9994 5.04852)">
<stop stop-color="#223EAF"/>
<stop offset="0.46875" stop-color="#3A488B"/>
</radialGradient>
<radialGradient id="paint5_radial_219_666" cx="0" cy="0" r="1" gradientUnits="userSpaceOnUse" gradientTransform="translate(185.343 170.263) rotate(90) scale(19.9997 5.04851)">
<stop stop-color="#223EAF"/>
<stop offset="0.46875" stop-color="#3A488B"/>
</radialGradient>
<linearGradient id="paint6_linear_219_666" x1="126.936" y1="182.566" x2="148.005" y2="182.566" gradientUnits="userSpaceOnUse">
<stop stop-color="#E8DCFF"/>
<stop offset="1" stop-color="#BEB7CC" stop-opacity="0"/>
</linearGradient>
<linearGradient id="paint7_linear_219_666" x1="126.936" y1="182.566" x2="148.005" y2="182.566" gradientUnits="userSpaceOnUse">
<stop stop-color="#E8DCFF"/>
<stop offset="1" stop-color="#BEB7CC" stop-opacity="0"/>
</linearGradient>
<linearGradient id="paint8_linear_219_666" x1="233.687" y1="182.566" x2="212.618" y2="182.566" gradientUnits="userSpaceOnUse">
<stop/>
<stop offset="1" stop-opacity="0"/>
</linearGradient>
</defs>
</svg>
